<?xml version="1.0" encoding="UTF-8"?>
<svg id="Layer_1" data-name="Layer 1" xmlns="http://www.w3.org/2000/svg" viewBox="0 0 693.39 271.67">
  <defs>
    <style>
      .cls-1 {
        fill: #2d5551;
        stroke-width: 0px;
      }
    </style>
  </defs>
  <g>
    <path class="cls-1" d="M59.53,200.68c-14.27,3.21-28.5,6.59-42.68,10.14C6.7,213.4.02,208.67.02,196.99V18.31C-.37,8.18,6.69-.25,17.13.07h43.19c9.87.13,17.82,8.13,17.9,18-.26,53.62-.52,107.25-.78,160.89-.58,10.38-7.83,19.18-17.91,21.72ZM52.13,21.51l-25.62.64c-3.28.09-4.6,2.06-4.61,6.23l-.25,152.93c0,4.16,1.29,5.81,4.54,5.09,10.14-2.24,15.21-3.31,25.38-5.37,2-.4,4.14-3,4.15-6.44.19-49.19.37-98.38.55-147.57.02-3.47-2.16-5.55-4.14-5.51Z"/>
    <path class="cls-1" d="M179.26,163.54c-.51,9.81-8.62,17.45-18.12,18.85-14.43,2.09-28.82,4.35-43.18,6.78-10.28,1.79-17-2.78-17-13.21.28-51.84.57-103.68.86-155.53,0-7.38-9.35-14.45-9.33-17.79,0-1.8.89-2.57,2.42-2.57h36c1.17-.15,2.24.67,2.4,1.84.03.21.03.42,0,.63,0,3.22-9.49,10.25-9.53,17.48-.29,47.63-.58,95.26-.86,142.89,0,3.74,1.28,5.28,4.56,4.79,10.25-1.52,15.38-2.24,25.65-3.59,2-.26,4.18-2.48,4.2-5.63l.87-139c0-7-9.34-13.77-9.32-16.94-.17-1.17.64-2.27,1.82-2.44,0,0,0,0,0,0,.2-.03.41-.03.61,0h36c1.15-.18,2.22.6,2.4,1.75,0,0,0,0,0,0,.03.21.03.41,0,.62,0,3.07-9.49,9.78-9.53,16.69-.32,48.12-.63,96.25-.92,144.38Z"/>
    <path class="cls-1" d="M261.83,2.35c6.36,0,15.8-2.28,18.65-2.28,1.53,0,2.19.9,2.18,2.49l-.08,28.52c0,1.59-.67,2.5-2.21,2.51s-2.85-2-8.31-8.54c-3.5-4.29-9-4.71-18-4.63-2.12.05-3.79,1.8-3.75,3.92-.2,43.43-.39,86.86-.58,130.3,0,6.64,9.43,12.41,9.42,15.38,0,1.6-.89,2.34-2.44,2.44-12.07.82-24.14,1.8-36.19,2.94-1.54.15-2.42-.46-2.41-2.09,0-3,9.53-10.36,9.57-17.07.22-43.88.45-87.76.68-131.65.08-2.06-1.53-3.8-3.59-3.89h-.12c-9,.1-14.49.62-18,5.13-5.53,6.88-6.86,9-8.39,9.08s-2.19-.9-2.18-2.55c.06-9.9.12-19.8.17-29.7,0-1.65.68-2.59,2.21-2.59,2.85,0,12.27,2.34,18.63,2.33l44.74-.05Z"/>
    <path class="cls-1" d="M379.64,155.45c0,9.21-6.83,14.19-17.23,14.07-23.39-.18-46.76.15-70.11,1-1.55.06-2.43-.58-2.42-2.16,0-2.94,9.52-9.61,9.54-16.15.1-44.71.2-89.42.31-134.13,0-6.54-9.4-12.84-9.39-15.77,0-1.58.88-2.26,2.42-2.26h66.44c11.46-.73,20.94,6.62,20.21,18.66l.23,136.74ZM357.44,24.96c0-5.16-1.76-7-6.8-7h-25.26c-2,0-3.73,1.81-3.73,4.5-.06,41.86-.11,83.72-.16,125.57,0,2.25,1.32,3.57,3.31,3.54,10.34-.15,15.51-.18,25.85-.15,4.64,0,6.85-2.43,6.85-7.15,0-39.74-.02-79.51-.06-119.31Z"/>
    <path class="cls-1" d="M460.29,174.27c-14.49-1.17-28.99-2.17-43.49-3-10.39-.55-17.26-6-17.28-15.24-.12-47.17-.24-94.35-.37-141.52,0-9.25,6.76-14.44,17.07-14.44h43.22c11.4,0,18,8.62,18.07,16.07.26,47.91.52,95.82.79,143.73.03,7.45-6.54,15.38-18.01,14.4ZM451.44,18.45l-25.67-.19c-3.3,0-4.61,1.57-4.6,5l.45,125.14c0,3.41,1.35,5.06,4.66,5.24,10.33.55,15.49.87,25.81,1.6,2,.14,4.18-1.54,4.17-4.53l-.63-127.35c.17-2.5-1.69-4.68-4.19-4.91Z"/>
    <path class="cls-1" d="M560.78,186.75c-14.39-2.27-28.8-4.37-43.23-6.3-10.33-1.33-17.19-7.53-17.25-17.2-.29-49.33-.58-98.67-.88-148-.06-9.68,6.7-15.11,17-15.11h43.2c9.76-.16,17.83,7.57,18.08,17.33.31,51.67.62,103.33.91,155,.06,7.98-6.44,16.08-17.83,14.28ZM551.64,19.75c-10.26-.17-15.4-.25-25.66-.4-3.29-.05-4.6,1.61-4.57,5.21.27,44,.54,88.02.82,132.07,0,3.59,1.35,5.43,4.65,5.83,10.28,1.25,15.41,1.92,25.67,3.35,2,.28,4.15-1.38,4.13-4.58l-.84-136.27c0-3.24-2.23-5.24-4.2-5.24v.03Z"/>
    <path class="cls-1" d="M594,189.96c0-3.31,9.33-8.76,9.29-16.23-.27-51.03-.53-102.06-.8-153.1,0-7.46-9.5-14.72-9.52-18,0-1.79.86-2.55,2.4-2.55h67.32c13.27,0,21.28,10.29,20.19,23.35v68.93c0,6.47-2.38,10.13-6.08,13.29-5.74,4.41-8.6,6.57-14.34,10.85,6.63,25.63,11.91,52.29,21,77.23,5,11,9.93,14.93,9.93,18.63,0,2-.86,2.62-2.37,2.22-11.55-3.09-23.14-6.02-34.79-8.79-1.53-.31-2.57-1.73-2.39-3.28,0-3.53,4.75-4.07,4.74-8.72-.25-1.92-.62-3.82-1.1-5.7-4.5-19.82-10.31-39.35-16-58.84-5.56,3.7-8.34,5.52-13.9,9.12-2,1.29-2.6,3.56-2.59,6.46l.15,32.9c0,7.63,9.41,17,9.42,20.42,0,1.86-.85,2.47-2.38,2.14-11.89-2.59-23.8-5.03-35.74-7.33-1.5-.16-2.58-1.5-2.43-3h-.01ZM624.44,26.39l.35,80.28c0,1.84.66,3,1.54,3.07,1.09.13,3-1.22,3-1.22,8.41-5.67,16.75-11.44,25-17.33,4.78-3.85,6.74-7,6.73-11.62l-.12-49.07c0-6.31-1.77-8.55-6.81-8.67-10.42-.26-15.63-.38-26.06-.62-1.91-.05-3.63,2.02-3.63,5.18Z"/>
  </g>
  <g>
    <path class="cls-1" d="M188.41,212.32c.82-.09,1.07.11,1.12.63s-1.56,3.56-1.4,5c.21,1.93,14.5,40.43,15.14,42.09,1.39,3.69,4.69,5.59,4.76,6.26s-.21.77-1,.86l-11.61,1.29c-.6.07-1.21,0-1.28-.61s2.5-3.29,2.39-4.33-3.48-9.56-3.8-10.43c-.2-.43-.36-.56-.73-.52-.52.13-1.01.36-1.44.68l-11.86,8.48c-.63.44-1,.71-.91,1.3l.13,1.19c.25,2.31,3.31,4.76,3.35,5.06.05.52-.15.77-1,.86l-12.28,1.38c-.52.06-.84-.13-.9-.65-.08-.75,2.63-3.46,3-5.68s5.92-44.44,5.77-45.85-2.4-4-2.47-4.55.14-.77,1-.86l14.02-1.6ZM183.22,225.32s-.21-.51-.65-.46-.47.58-.47.58l-2.84,26.69c0,.22.12.36.27.34.13-.04.25-.1.35-.19,2-1.42,7.84-5.46,9.5-6.78.27-.25.4-.42.37-.71-.06-.25-.14-.49-.23-.73l-6.3-18.74Z"/>
    <path class="cls-1" d="M240.57,259.51c.26,3.06-1.91,5-5.42,5.26l-23.66,2c-.52,0-.84-.16-.88-.68-.08-1,2.95-3.32,2.78-5.49l-3.62-44.4c-.18-2.17-3.56-4-3.64-5,0-.52.23-.77.76-.82l22.56-1.87c4.48-.37,7,1.3,7.38,5.63l3.74,45.37ZM229.57,216.84c-.14-1.71-.79-2.26-2.51-2.12l-8.58.71c-.75.12-1.26.83-1.14,1.58h0l3.43,41.78c-.02.58.42,1.07,1,1.11h.17l8.73-.72c1.15.05,2.13-.85,2.18-2,0-.2-.01-.39-.06-.58l-3.22-39.76Z"/>
    <path class="cls-1" d="M268.22,212.36c0-.15.06-.22.05-.37-.1-1.8-2.87-4.42-2.91-5s.26-.76.78-.79l12.49-.71c.52,0,.84.18.87.71,0,1-2.71,2.62-3.28,5.73l-8.57,44.79c-.04.22-.04.46,0,.68.1,1.87,2,3.57,2.05,4.46,0,.53-.26.77-.78.8l-12.26.69c-.53,0-.84-.18-.87-.7,0-.9,1.64-2.8,1.54-4.66,0-.23-.05-.45-.12-.67l-13.56-43.56c-.92-3-3.85-4.36-3.9-5.33,0-.53.26-.77.78-.8l12.41-.7c.52,0,.84.18.87.7s-2.43,3.51-2.33,5.31c0,.15.09.22.1.37,1.29,4.35,9.94,33.86,9.94,33.86,0,0,.17.44.4.43s.34-.47.34-.47c0,0,5.16-30.3,5.96-34.77Z"/>
    <path class="cls-1" d="M304.93,212.18c.05-.75-.52-1.41-1.27-1.46,0,0,0,0,0,0h0l-8.83.26c-.67,0-1,.41-1,1.23l.68,22.61,9.33-6c.45-.38.98-.65,1.55-.8.45,0,.69.43.7,1l.18,6c0,.9-.48,1.29-1.51,2l-10,6.44.33,11c-.04.6.41,1.11,1,1.16h.14l8.61-.26c.82-.07,1.43-.79,1.37-1.61l-.14-4.94c0-1.28.17-1.81.68-2.2,0,0,4.92-3.37,5.67-3.39s1,.35,1,1l.44,14.75c0,1.34-.61,2.11-2.18,2.16l-26.28.79c-.52,0-.83-.2-.84-.73,0-1,3.13-3.16,3.06-5.33l-1.33-44.54c-.07-2.18-3.35-4.17-3.38-5.15,0-.52.28-.76.8-.77l26.2-.79c1.65,0,2.34.68,2.38,1.73l.25,8.46c0,1.27-.17,1.8-.68,2.19,0,0-4.91,3.75-5.66,3.77s-1-.35-1-1l-.26-7.58Z"/>
    <path class="cls-1" d="M347.24,260.72c-1.13,0-1.65-.74-2.48-2.24l-16.06-33.35c-.38-.75-.46-1-.83-1s-.37.23-.37.83l.09,29.8c0,2.17,3.24,4.26,3.24,5.23,0,.53-.3.75-.82.75h-11.91c-.52,0-.82-.22-.82-.74,0-1,3.21-3.08,3.2-5.26l-.15-44.55c0-2.18-3.23-4.26-3.23-5.24,0-.52.29-.75.82-.75h8.54c1.12,0,1.8.75,2.47,2.24l16.52,36.12c.15.3.31.6.53.6s.22-.45.22-.45l-.1-32.58c0-2.17-3.24-4.26-3.24-5.23,0-.52.3-.75.82-.75h11.91c.52,0,.82.22.82.75,0,1-3.21,3.08-3.2,5.25l.16,49c.11.71-.37,1.37-1.08,1.49,0,0-.01,0-.02,0-.11.01-.21.01-.32,0l-4.71.08Z"/>
    <path class="cls-1" d="M382.17,205.51c2.17.05,5.41-.62,6.38-.6.53,0,.74.31.73.84l-.22,9.43c0,.53-.24.82-.76.81s-1-.7-2.78-2.91c-1.17-1.45-3-1.64-6.11-1.72-.7-.02-1.28.54-1.3,1.24,0,0,0,0,0,0h0l-1,42.6c0,2.17,3.12,4.34,3.1,5.32,0,.52-.32.74-.84.73l-12.28-.29c-.52,0-.82-.24-.81-.76,0-1,3.29-3,3.34-5.17l1-42.6c.03-.7-.51-1.28-1.21-1.31,0,0,0,0,0,0h0c-3.07-.07-4.95,0-6.18,1.43-1.92,2.13-2.38,2.8-2.91,2.78s-.74-.31-.73-.84l.22-9.43c0-.52.24-.82.77-.81,1,0,4.17.85,6.35.9l15.24.36Z"/>
    <path class="cls-1" d="M420.1,257.78c-.11,2.4-2.49,5.06-6.38,4.88l-14.73-.69c-3.52-.17-5.76-2-5.61-5.07l2.14-45.7c.1-2.17-3-4.41-3-5.38,0-.53.34-.74.86-.71l12.27.57c.52,0,.81.26.79.79,0,1-3.37,2.91-3.47,5.08l-2,42.86c-.05,1.12.37,1.67,1.5,1.72l8.75.41c.82-.01,1.48-.68,1.49-1.5l2-42.94c.1-2.17-3-4.41-3-5.38,0-.53.33-.74.85-.71l12.27.57c.38-.05.74.21.79.6,0,.06,0,.13,0,.19-.05,1-3.36,2.92-3.46,5.09l-2.06,45.32Z"/>
    <path class="cls-1" d="M425.4,262.51c.07-1,3.43-2.83,3.59-5l3.23-44.44c.16-2.16-2.9-4.49-2.83-5.46,0-.52.35-.72.88-.69l22.93,1.67c4.48.33,6.73,2.37,6.42,6.7l-1.33,18.3c-.12,1.52-1.01,2.87-2.36,3.58l-5.17,3c2.15,8.57,5,19,5.73,20.24,1.53,2.74,3.2,3.54,3.13,4.51,0,.52-.35.72-.88.68l-12-.87c-.37.06-.72-.2-.78-.57-.01-.08-.01-.16,0-.24.07-1,1.75-1.3,1.84-2.57-.05-.51-.14-1.02-.27-1.52-.72-3.43-2.58-10-4.33-15.86l-5,2.79c-.64.41-1.02,1.12-1,1.88l-.68,9.34c-.16,2.16,2.9,4.49,2.83,5.46,0,.52-.35.73-.87.69l-12.25-.89c-.6.01-.88-.24-.84-.73ZM439.58,215.11l-1.65,22.78c0,.52.16.84.46.86.38-.05.75-.17,1.08-.37l9-5c1.73-1.07,2.46-1.92,2.55-3.19l1-13.37c.12-1.72-.43-2.36-2.15-2.49l-8.89-.64c-.76-.02-1.38.58-1.4,1.34h0v.08h0Z"/>
    <path class="cls-1" d="M488.3,219.24c.14-.75-.35-1.47-1.1-1.62h0l-8.8-.86c-.67-.06-1.08.27-1.16,1.09l-2.2,22.51,10-4.81c.5-.32,1.06-.52,1.64-.59.44,0,.62.51.57,1l-.58,6c-.09.89-.65,1.21-1.76,1.78l-10.73,5.12-1.07,11c-.12.58.25,1.16.83,1.28,0,0,0,0,0,0h.16l8.57.84c.83.05,1.55-.58,1.6-1.41,0,0,0,0,0,0v-.07l.48-4.92c.13-1.26.4-1.76,1-2.08,0,0,5.31-2.72,6-2.65s.93.47.87,1.14l-1.46,14.74c-.13,1.35-.87,2-2.44,1.87l-26.16-2.56c-.37.05-.71-.22-.76-.59,0-.08,0-.16.01-.23.1-1,3.51-2.75,3.72-4.91l4.34-44.35c.21-2.16-2.79-4.56-2.7-5.53,0-.52.37-.72.89-.66l26.09,2.55c1.64.16,2.24,1,2.14,2l-.83,8.41c-.12,1.26-.39,1.76-1,2.08,0,0-5.35,3.09-6.09,3s-.93-.47-.87-1.14l.79-7.42Z"/>
    <path class="cls-1" d="M507.32,230.83c-.26,1.46.3,2.95,1.45,3.89l11.35,10.42c2.1,1.91,2.92,3.3,2.59,6l-2,16.39c-.37,3-2.88,4.49-6.38,4.07l-13.16-1.59c-3.86-.47-5.76-3.49-5.48-5.87l1.71-14.2c.08-.67.43-1,1.1-.92s5.29,4.26,5.29,4.26c.48.43.64,1,.48,2.24l-.85,7.14c-.14.81.41,1.59,1.22,1.73l7.21.87c1.12.14,1.63-.33,1.76-1.45l1.27-10.55c.19-1.38-.36-2.77-1.44-3.65l-11.21-10.33c-2-1.82-3.15-3.24-2.82-6l1.85-15.39c.37-3,2.88-4.49,6.38-4.07l13.16,1.59c3.86.47,5.76,3.49,5.48,5.87l-1.44,12c-.09.67-.43,1-1.1.92s-5.29-4.26-5.29-4.26c-.48-.43-.64-1-.49-2.24l.6-4.91c.18-.76-.29-1.52-1.05-1.7,0,0-.01,0-.02,0h-.16l-7.21-.87c-1.12-.14-1.63.33-1.76,1.45l-1.04,9.16Z"/>
  </g>
</svg>