<?xml version="1.0" encoding="UTF-8"?>
<svg id="Layer_1" data-name="Layer 1" xmlns="http://www.w3.org/2000/svg" viewBox="0 0 1018.17 587.68">
  <defs>
    <style>
      .cls-1 {
        fill: #2d5551;
        stroke-width: 0px;
      }
    </style>
  </defs>
  <path class="cls-1" d="M489.25,483.58c-5.77,1.03-3.57-1.5-9.25-3,1.44,6.64.83,13.9-.24,21.2-1.25,8.51-3.13,17.11-3.31,25,0,2.87-.24,5.73-.35,8.61.02.75-.02,1.49-.09,2.24-.18,3.71-.37,7.43-.62,11.14-.54,7.7-1.27,15.38-2.2,23.05,4.91.79,9.86,1.24,14.83,1.36-.68-8.13-1.57-16.43-.7-24.67v-.33c.16-1.45.41-2.9.65-4.34.37-2.2.79-4.39,1.27-6.57.96-4.42,2.03-8.84,2.71-13.3,2.09-13.51,1.14-27.31-2.79-40.4h.09Z"/>
  <path class="cls-1" d="M1000.87,552.23c-5.21-1.68-10.45-3.17-15.67-4.73l-35.16-27.32c9.88-2.01,23.78-10.37,33.67-12.39-12.21-8.78-25.51-15.95-39.56-21.34,8.8-5.15,23.26-11.16,33.38-9.9-19.18-8.12-37.09-18.97-53.18-32.2,9.98.16,22.02-2.71,31.99-2.59-17.62-15.16-26.69-19.06-36.76-40.03,9.84-2.21,31.06,5.14,47.27,4.93-13.83-10.33-51.17-53.47-65.07-63.78-.52-.38-1.08-.92-.92-1.55s1-.81,1.67-.85l22.9-1.36c-1.22-2.63-5.64-8.24-6.78-10.93-3.95-9.45-11.52-16.92-21.01-20.77,3.32-.19,13.87-3.54,17.19-3.73-3.66-8.93-10.6-16.05-15.89-24.13s-14.27-21.69-10.45-30.43c-8.49,23.48-22.73,44.45-41.43,61l21.99-6.26c-8.82,9.1-17.12,18.68-24.86,28.71-24.21-22.9-65.42-69.45-82.33-82.1-.73-.56-1.56-1.36-1.36-2.22s1.45-1.18,2.41-1.23l32.93-1.97c-1.76-3.78-8.13-11.85-9.71-15.7-5.71-13.6-16.62-24.34-30.31-29.82,4.77-.27,19.91-5.08,24.69-5.34-5.25-12.85-15.22-23.05-22.83-34.69-7.61-11.64-20.5-31.04-15.01-43.79-12.18,33.71-32.61,63.83-59.43,87.6l31.59-8.99c-21.01,21.19-40.32,46.95-58.4,70.61l45.26-7.89c-8.01,11.96-16.99,23.25-26.84,33.74-30.35-25.36-94.7-96.74-119.63-114.77-.99-.72-2.1-1.74-1.79-2.9s1.94-1.53,3.25-1.61l44.3-2.63c-2.37-4.93-10.93-15.45-13.08-20.5-7.89-17.91-22.62-31.92-40.9-38.89,6.43-.35,26.83-6.64,33.27-7-7.08-16.77-20.52-30.14-30.77-45.29-10.25-15.16-27.57-40.59-20.21-57.23-16.62,44.31-44.2,83.68-80.17,114.44l42.55-11.7c-28.29,27.61-54.29,61.25-78.63,92.18l61-10.3c-29.39,42.84-70.06,79.72-115.23,108.19-10.57-11.06-20.17-23.01-28.7-35.72l45.25,7.89c-18.08-23.68-37.37-49.44-58.37-70.6l31.59,8.99c-26.85-23.77-47.31-53.9-59.51-87.63,5.42,12.74-7.42,32.18-15.01,43.79s-17.62,21.84-22.84,34.69c4.77.26,19.93,5.07,24.7,5.34-13.69,5.49-24.61,16.23-30.33,29.82-1.57,3.85-7.94,11.92-9.71,15.7l32.89,2.01c.96,0,2.16.3,2.4,1.23s-.58,1.67-1.36,2.22c-16.89,12.59-58.12,59.15-82.33,81.97-7.72-10.03-16-19.61-24.81-28.7l22,6.33c-18.69-16.55-32.93-37.53-41.41-61,3.82,8.88-5.16,22.41-10.45,30.49s-12.2,15.2-15.89,24.13c3.32.19,13.85,3.54,17.19,3.73-9.53,3.82-17.13,11.3-21.11,20.77-1.11,2.71-5.53,8.3-6.78,10.93l22.88,1.36c.68,0,1.5.2,1.68.85s-.41,1.17-.92,1.55c-13.84,10.32-51.17,53.45-65.07,63.71,16.27.2,37.44-7.14,47.27-4.93-10.06,20.97-19.11,24.88-36.76,40.03,9.98-.16,22.02,2.71,31.99,2.59-16.05,13.23-33.93,24.08-53.07,32.21,10.11-1.26,24.58,4.74,33.38,9.9-14.05,5.38-27.34,12.55-39.56,21.34,9.88,2.02,23.78,10.38,33.67,12.39l-4.64,3.61c-.91.31-1.88.52-2.71.87-11.56,4.69-21.83,13.71-31.84,20.89s-30.61,28.78-42.53,30.41l100.17-13.65,2.36,18.17c48.8-24.4,115.12,13.1,159.96-15.74h.56c-4.5,4.16-6.55,10.35-5.42,16.38,64.69,18.8,133.57-18.5,200.25-11.43.12-6.97.08-13.96,0-20.97v-9.64c-.11-5.76-.33-11.51-.52-17.27-.24-6.7-.46-13.37-.77-20.04-.11-2.28-.23-4.53-.34-6.78l-.57-11.18c-.12-2.25-.22-4.53-.35-6.78-.49-9.15-4.62-17.12-8.76-25.12-3.74-7.25-7.48-14.53-8.5-22.77-.11-.84-.08-1.68-.14-2.52-.58-8.42.94-16.89,2.56-25.2,1.83-9.34,3.7-18.8,7.89-27.34,6.02-12.3,16.43-21.88,27.44-30.01,4.35-2.98,8.49-6.28,12.36-9.86-8.96-1.51-16.52-7.51-20.02-15.89,4.79-1.22,9.74-1.75,14.68-1.59-7.17-2.07-14.21-4.56-21.09-7.44-10.07-4.12-19.26-10.09-27.11-17.62-2.44-2.85-5.2-5.41-8.23-7.62-2.11-1.36-4.54-2.28-6.33-4.07-.77-.61-1.18-1.58-1.06-2.56.43-1.59,2.71-1.56,4.26-1.18l11.32,2.62c-.82-10.59-.74-21.23.24-31.8,0-1.93.56-3.81,1.61-5.42,1.19-1.49,3.67-2.13,5.03-.77,1.07,1.06,1.02,2.71.88,4.26-.43,5.07-.86,10.14-1.29,15.2,1.72-4.34,4-8.44,6.78-12.2,2.82-3.79,6.99-6.36,11.64-7.16.92-.22,1.88,0,2.6.61.54.77.54,1.79,0,2.56-.53.74-1.19,1.37-1.95,1.87-3.62,2.71-6.94,5.8-9.88,9.23-.64.55-.95,1.39-.83,2.22.45,1.21,2.21.95,3.4.46l9.68-3.93c1.01-.51,2.14-.76,3.27-.7,1.17.09,2.07,1.06,2.07,2.24-.14,1.15-1.36,1.79-2.49,2.18-6.68,2.35-14.48,3.39-18.98,8.88-4.65,5.75-3.76,14.18,1.99,18.84,1.9,1.53,4.17,2.52,6.59,2.85.7-1.46-.11-3.16-.72-4.65s-.94-3.51.34-4.5,3.24-.09,4.07,1.36c.65,1.47.98,3.06.96,4.66,1.03,8.87,7.27,16.26,15.85,18.76,1.41-2.77,1.44-6.04.07-8.83-.48-.74-.81-1.56-.99-2.43-.08-.88.52-1.9,1.36-1.88.54.09,1.02.39,1.36.83,3.33,3.44,5.1,8.13,7.08,12.44s4.5,8.83,8.68,11.2c1.67.96,3.55,1.53,5.25,2.45.97.52,1.82,1.22,2.54,2.06,4.17.26,8.26,1.25,12.09,2.91,3.28-2.49,5.42-6.43,7.12-10.38,1.87-4.37,3.52-9,6.66-12.44.32-.45.81-.74,1.36-.83.84,0,1.36,1,1.36,1.88-.16.86-.47,1.69-.92,2.44-1.3,2.79-1.3,6.02,0,8.81,7.9-2.29,14.1-10.1,14.91-18.76-.01-1.6.29-3.18.89-4.66.75-1.36,2.6-2.28,3.8-1.36s.91,3,.33,4.5-1.36,3.19-.68,4.65c4.6-.79,8.42-3.97,10.02-8.35,1.62-4.5.9-9.52-1.94-13.38-4.22-5.42-11.54-6.53-17.83-8.88-1.04-.39-2.22-1.03-2.36-2.18,0-1.14.84-2.1,1.97-2.24,1.07-.05,2.13.2,3.06.7l9.11,3.93c1.11.49,2.78.75,3.19-.46.14-.82-.15-1.66-.77-2.22-2.76-3.4-5.87-6.5-9.29-9.23-.73-.5-1.35-1.14-1.84-1.87-.5-.78-.5-1.78,0-2.56.66-.59,1.58-.82,2.44-.61,4.37.58,8.2,3.52,10.95,7.16,2.63,3.79,4.78,7.89,6.4,12.2l-.94-15.14c-.12-1.49-.18-3.2.83-4.26,1.27-1.36,3.61-.72,4.72.77,1,1.63,1.53,3.51,1.53,5.42.93,10.58,1,21.21.22,31.8l10.64-2.63c1.5-.37,3.61-.39,4.07,1.19.13.97-.25,1.94-.99,2.58-1.69,1.75-3.97,2.71-5.95,4.07-2.97,2.02-5.27,4.96-7.74,7.62-7.26,7.48-15.92,13.47-25.49,17.62-7.31,3.27-14.83,6.08-22.5,8.39.72.5,1.5.89,2.2,1.45,3.63,2.9,6.66,6.48,10.17,9.49s7.7,5.63,12.34,5.91c2.83.18,6.32-.27,7.93,2.09,1.36,1.98.41,4.66-.58,6.86-1.68,3.73-3.59,7.7-7.17,9.65-2.36,1.11-4.94,1.68-7.55,1.68-4.88.3-9.84.37-14.53,1.75s-9.19,4.35-11.09,8.85c-2.62,6.24-4.13,13.83-1.26,19.94,2.32,4.93,7.35,8.13,12.61,9.6s10.85,1.36,16.27,1.36c14.21,0,28.47.28,42.43,2.93,10.81,1.94,21.21,5.66,30.8,11.01,2.83,1.59,5.55,3.37,8.13,5.33,7.47,5.65,13.58,12.91,17.87,21.24.09.2.19.42.3.62,2.07,4.14,3.57,8.56,4.43,13.11.44,1.87.47,3.81.08,5.69-.41,1.94-1.85,3.5-3.74,4.07-2.71.61-5.3-1.74-6.78-4.18s-2.44-5.29-4.74-6.94c2.91,9.58.68,19.67-.81,29.58-.87,5.18-1.2,10.45-.99,15.7.17,4.78,1.46,9.46,3.77,13.65,4.19,7.27,11.77,11.88,17.04,18.4.84,1.14,1.61,2.32,2.32,3.54,4.24,7.12,6.8,15.11,7.5,23.37,0,.34.11.66.14.99.8,8.27.56,16.59.72,24.89,22.76.51,45.52-.51,68.15-3.04-.65-5.14,21.69-.45,21.03-5.6,90.83,3.51,158.77-2.82,249.65.68,8.95.35,20.69-1.36,22.22-10.22s-8.76-14.45-17.15-17.15Z"/>
  <path class="cls-1" d="M637.36,557.91c-.53-1.46-1.23-2.85-2.1-4.13-3.33-4.79-8.8-7.25-14.22-9.67-1.36-.62-2.83-1.25-4.19-1.91-11.98-5.83-21.79-15.32-27.99-27.11,3.14,7.45,7.61,14.26,13.19,20.1,2.47,2.43,5.33,5.04,5.54,8.5.04.83-.07,1.66-.33,2.45-.65,1.87-1.64,3.61-2.91,5.12l-1.52,1.95c-6.44,8.39-9.19,18.87-13.19,28.7,16.71,2.52,33.55,4.16,50.44,5.04-.26-5.34-.51-10.68-.75-16.01,0-4.42-.67-8.82-1.98-13.04Z"/>
  <path class="cls-1" d="M582.61,535.83c-4.07-3.66-8.4-7.2-12.35-11.05-2.14-2.04-4.14-4.23-5.96-6.56-3.74-4.71-6.18-10.32-7.06-16.27-.34-2.49-.26-5.01.23-7.47-11.2,1.28-22.53.7-33.54-1.69-.57,3.01-1.36,6.03-2.17,9.04-3.06,11.4-7.5,22.8-11.14,33.78l-.75,2.17c-2.78,8.22-5.79,16.38-7.79,24.82-.68,2.94-1.21,5.91-1.59,8.91,4.42-1.27,8.29-4,10.95-7.75,20.98,6.58,42.36,11.81,64.01,15.64,4.57-7.15,8.52-14.69,11.81-22.52,1.22-2.67,1.98-5.53,2.26-8.46v-.45c.04-1.1-.08-2.2-.35-3.27-.92-3.62-3.76-6.39-6.56-8.88Z"/>
</svg>